<svg width="30" height="30" viewBox="0 0 30 30" fill="none" xmlns="http://www.w3.org/2000/svg">
<path fill-rule="evenodd" clip-rule="evenodd" d="M15 30C23.2843 30 30 23.2843 30 15C30 6.71573 23.2843 0 15 0C6.71573 0 0 6.71573 0 15C0 23.2843 6.71573 30 15 30ZM22.947 11.067C23.5363 10.3599 23.4407 9.30895 22.7336 8.71967C22.0265 8.1304 20.9755 8.22594 20.3863 8.93307L14.3897 16.129C13.8118 16.8224 13.4869 17.2063 13.2276 17.4422L13.2177 17.4512L13.207 17.4432C12.9273 17.2317 12.5691 16.8788 11.9308 16.2405L9.5118 13.8215C8.86093 13.1707 7.80565 13.1707 7.15478 13.8215C6.5039 14.4724 6.5039 15.5277 7.15478 16.1786L9.57376 18.5975L9.64181 18.6656C10.186 19.21 10.7094 19.7336 11.1965 20.1019C11.7421 20.5145 12.4567 20.9025 13.3723 20.8609C14.288 20.8194 14.9645 20.3683 15.4705 19.9081C15.9222 19.4972 16.3962 18.9283 16.8888 18.3369L16.9504 18.2629L22.947 11.067Z" fill="#0183FF"/>
</svg>
