<svg width="22" height="18" viewBox="0 0 22 18" fill="none" xmlns="http://www.w3.org/2000/svg">
<path fill-rule="evenodd" clip-rule="evenodd" d="M1.37868 1.71193C0.5 2.59061 0.5 4.00482 0.5 6.83325V11.1666C0.5 13.995 0.5 15.4092 1.37868 16.2879C2.25736 17.1666 3.67157 17.1666 6.5 17.1666H15.5C18.3284 17.1666 19.7426 17.1666 20.6213 16.2879C21.5 15.4092 21.5 13.995 21.5 11.1666V6.83325C21.5 4.00483 21.5 2.59061 20.6213 1.71193C19.7426 0.833252 18.3284 0.833252 15.5 0.833252H6.5C3.67157 0.833252 2.25736 0.833252 1.37868 1.71193ZM4.64713 4.52932C4.11102 4.17191 3.38667 4.31677 3.02926 4.85289C2.67184 5.38901 2.81671 6.11336 3.35283 6.47077L9.70568 10.706C10.4894 11.2285 11.5105 11.2285 12.2943 10.706L18.6471 6.47077C19.1832 6.11336 19.3281 5.38901 18.9707 4.85289C18.6133 4.31677 17.8889 4.17191 17.3528 4.52932L11 8.76455L4.64713 4.52932Z" fill="#0183FF"/>
</svg>
