<svg width="36" height="36" viewBox="0 0 36 36" fill="none" xmlns="http://www.w3.org/2000/svg">
<path d="M18 33.75C13.8228 33.75 9.81677 32.0906 6.86307 29.1369C3.90937 26.1832 2.25 22.1772 2.25 18C2.25 13.8228 3.90937 9.81677 6.86307 6.86307C9.81677 3.90937 13.8228 2.25 18 2.25C22.1772 2.25 26.1832 3.90937 29.1369 6.86307C32.0906 9.81677 33.75 13.8228 33.75 18C33.75 22.1772 32.0906 26.1832 29.1369 29.1369C26.1832 32.0906 22.1772 33.75 18 33.75ZM18 36C22.7739 36 27.3523 34.1036 30.7279 30.7279C34.1036 27.3523 36 22.7739 36 18C36 13.2261 34.1036 8.64773 30.7279 5.27208C27.3523 1.89642 22.7739 0 18 0C13.2261 0 8.64773 1.89642 5.27208 5.27208C1.89642 8.64773 0 13.2261 0 18C0 22.7739 1.89642 27.3523 5.27208 30.7279C8.64773 34.1036 13.2261 36 18 36Z" fill="#0183FF"/>
<path d="M14.1098 11.3737C14.2938 11.279 14.5004 11.2368 14.7068 11.2519C14.9132 11.267 15.1115 11.3387 15.2798 11.4592L23.1548 17.0842C23.3006 17.1883 23.4195 17.3257 23.5015 17.485C23.5835 17.6443 23.6263 17.8208 23.6263 18C23.6263 18.1792 23.5835 18.3557 23.5015 18.515C23.4195 18.6743 23.3006 18.8117 23.1548 18.9157L15.2798 24.5407C15.1115 24.6611 14.9134 24.7328 14.707 24.7479C14.5007 24.763 14.2942 24.7209 14.1103 24.6263C13.9263 24.5316 13.772 24.3881 13.6644 24.2114C13.5567 24.0348 13.4998 23.8319 13.5 23.625V12.375C13.4998 12.1682 13.5566 11.9653 13.6642 11.7887C13.7717 11.612 13.9259 11.4685 14.1098 11.3737Z" fill="#0183FF"/>
</svg>
