<svg width="22" height="22" viewBox="0 0 22 22" fill="none" xmlns="http://www.w3.org/2000/svg">
<path fill-rule="evenodd" clip-rule="evenodd" d="M11 21.5C16.799 21.5 21.5 16.799 21.5 11C21.5 5.20101 16.799 0.5 11 0.5C5.20101 0.5 0.5 5.20101 0.5 11C0.5 16.799 5.20101 21.5 11 21.5ZM16.5629 8.24691C16.9754 7.75192 16.9085 7.01626 16.4135 6.60377C15.9185 6.19128 15.1829 6.25816 14.7704 6.75315L10.5728 11.7903C10.1683 12.2757 9.94086 12.5444 9.75931 12.7096L9.75237 12.7158L9.74489 12.7102C9.54914 12.5622 9.29834 12.3151 8.85155 11.8684L7.15826 10.1751C6.70265 9.71946 5.96396 9.71946 5.50835 10.1751C5.05273 10.6307 5.05273 11.3694 5.50835 11.825L7.20163 13.5183L7.24927 13.5659C7.63018 13.947 7.99662 14.3136 8.33756 14.5714C8.71949 14.8602 9.21966 15.1317 9.86064 15.1027C10.5016 15.0736 10.9751 14.7578 11.3294 14.4357C11.6456 14.148 11.9773 13.7498 12.3222 13.3358L12.3653 13.284L16.5629 8.24691Z" fill="white"/>
</svg>
