<svg width="44" height="44" viewBox="0 0 44 44" fill="none" xmlns="http://www.w3.org/2000/svg">
<path fill-rule="evenodd" clip-rule="evenodd" d="M22 0C9.84974 0 0 9.84974 0 22C0 34.1503 9.84974 44 22 44C34.1503 44 44 34.1503 44 22C44 9.84974 34.1503 0 22 0ZM17.163 10.3376C18.4146 10.2806 18.8145 10.2667 22.0011 10.2667H21.9974C25.185 10.2667 25.5835 10.2806 26.835 10.3376C28.0842 10.3948 28.9373 10.5925 29.6853 10.8827C30.4577 11.1821 31.1104 11.583 31.7631 12.2357C32.4158 12.8879 32.8167 13.5425 33.1173 14.3142C33.4058 15.0603 33.6038 15.9129 33.6624 17.162C33.7187 18.4136 33.7333 18.8135 33.7333 22.0001C33.7333 25.1867 33.7187 25.5857 33.6624 26.8372C33.6038 28.0859 33.4058 28.9387 33.1173 29.685C32.8167 30.4565 32.4158 31.1112 31.7631 31.7633C31.1112 32.416 30.4575 32.8179 29.686 33.1176C28.9395 33.4077 28.0859 33.6055 26.8368 33.6627C25.5852 33.7196 25.1865 33.7336 21.9996 33.7336C18.8133 33.7336 18.4136 33.7196 17.162 33.6627C15.9131 33.6055 15.0603 33.4077 14.3137 33.1176C13.5425 32.8179 12.8879 32.416 12.2359 31.7633C11.5835 31.1112 11.1826 30.4565 10.8827 29.6848C10.5928 28.9388 10.395 28.0861 10.3376 26.837C10.2808 25.5854 10.2667 25.1867 10.2667 22.0001C10.2667 18.8135 10.2813 18.4134 10.3373 17.1618C10.3935 15.9131 10.5915 15.0603 10.8824 14.314C11.1831 13.5425 11.584 12.8879 12.2367 12.2357C12.8888 11.5833 13.5435 11.1824 14.3152 10.8827C15.0612 10.5925 15.9139 10.3948 17.163 10.3376Z" fill="white"/>
<path fill-rule="evenodd" clip-rule="evenodd" d="M20.9482 12.3811C21.1526 12.3808 21.3725 12.3809 21.6098 12.381L22.0008 12.3811C25.1337 12.3811 25.505 12.3924 26.7421 12.4486C27.8861 12.5009 28.507 12.692 28.9206 12.8526C29.4682 13.0653 29.8586 13.3195 30.269 13.7302C30.6797 14.1409 30.9339 14.532 31.1471 15.0796C31.3077 15.4927 31.4991 16.1136 31.5511 17.2576C31.6073 18.4945 31.6196 18.866 31.6196 21.9974C31.6196 25.1288 31.6073 25.5003 31.5511 26.7372C31.4988 27.8812 31.3077 28.5021 31.1471 28.9153C30.9344 29.4628 30.6797 29.8527 30.269 30.2631C29.8583 30.6738 29.4684 30.928 28.9206 31.1407C28.5075 31.302 27.8861 31.4927 26.7421 31.545C25.5052 31.6012 25.1337 31.6135 22.0008 31.6135C18.8677 31.6135 18.4964 31.6012 17.2595 31.545C16.1155 31.4922 15.4946 31.3011 15.0808 31.1405C14.5332 30.9278 14.1421 30.6736 13.7314 30.2629C13.3208 29.8522 13.0665 29.4621 12.8534 28.9143C12.6928 28.5012 12.5014 27.8803 12.4493 26.7363C12.3931 25.4994 12.3818 25.1278 12.3818 21.9945C12.3818 18.8612 12.3931 18.4915 12.4493 17.2546C12.5016 16.1106 12.6928 15.4897 12.8534 15.0761C13.066 14.5286 13.3208 14.1375 13.7314 13.7268C14.1421 13.3161 14.5332 13.0619 15.0808 12.8487C15.4944 12.6874 16.1155 12.4967 17.2595 12.4442C18.3419 12.3953 18.7614 12.3806 20.9482 12.3782V12.3811ZM28.264 14.3293C27.4867 14.3293 26.856 14.9593 26.856 15.7369C26.856 16.5142 27.4867 17.1449 28.264 17.1449C29.0414 17.1449 29.6721 16.5142 29.6721 15.7369C29.6721 14.9595 29.0414 14.3289 28.264 14.3289V14.3293ZM15.9752 22.0001C15.9752 18.6725 18.673 15.9746 22.0006 15.9745C25.3282 15.9745 28.0255 18.6724 28.0255 22.0001C28.0255 25.3278 25.3285 28.0245 22.0008 28.0245C18.6732 28.0245 15.9752 25.3278 15.9752 22.0001Z" fill="white"/>
<path fill-rule="evenodd" clip-rule="evenodd" d="M22.001 18.0889C24.1609 18.0889 25.9121 19.8398 25.9121 22C25.9121 24.16 24.1609 25.9112 22.001 25.9112C19.8408 25.9112 18.0898 24.16 18.0898 22C18.0898 19.8398 19.8408 18.0889 22.001 18.0889V18.0889Z" fill="white"/>
</svg>
