<svg width="44" height="44" viewBox="0 0 44 44" fill="none" xmlns="http://www.w3.org/2000/svg">
<path fill-rule="evenodd" clip-rule="evenodd" d="M22 0C9.84974 0 0 9.84974 0 22C0 34.1503 9.84974 44 22 44C34.1503 44 44 34.1503 44 22C44 9.84974 34.1503 0 22 0ZM10.5615 18.2214H15.5472V33.2013H10.5615V18.2214ZM15.8755 13.5875C15.8432 12.1187 14.7928 11 13.0873 11C11.3817 11 10.2667 12.1187 10.2667 13.5875C10.2667 15.0258 11.3488 16.1767 13.0226 16.1767H13.0544C14.7928 16.1767 15.8755 15.0258 15.8755 13.5875ZM27.787 17.8696C31.0679 17.8696 33.5274 20.0111 33.5274 24.6122L33.5272 33.2013H28.5418V25.187C28.5418 23.174 27.8203 21.8004 26.0155 21.8004C24.6381 21.8004 23.8176 22.7264 23.4573 23.6208C23.3255 23.9413 23.2931 24.3879 23.2931 24.8356V33.2017H18.3068C18.3068 33.2017 18.3726 19.6274 18.3068 18.2218H23.2931V20.3435C23.9548 19.3236 25.14 17.8696 27.787 17.8696Z" fill="white"/>
</svg>
