<svg width="21" height="21" viewBox="0 0 21 21" fill="none" xmlns="http://www.w3.org/2000/svg">
<path d="M2.17962 2.48696L3.62623 1.04036C4.01675 0.649834 4.64991 0.649834 5.04044 1.04036L8.29289 4.29281C8.68342 4.68334 8.68342 5.3165 8.29289 5.70702L6.0839 7.91602C5.7352 8.26472 5.64875 8.79742 5.86929 9.23849C7.14417 11.7883 9.21166 13.8557 11.7614 15.1306C12.2025 15.3512 12.7352 15.2647 13.0839 14.916L15.2929 12.707C15.6834 12.3165 16.3166 12.3165 16.7071 12.707L19.9596 15.9595C20.3501 16.35 20.3501 16.9832 19.9596 17.3737L18.513 18.8203C16.4016 20.9316 13.059 21.1692 10.6703 19.3777L8.12857 17.4713C6.38504 16.1637 4.83622 14.6149 3.52857 12.8713L1.62226 10.3296C-0.169278 7.94088 0.0682728 4.59831 2.17962 2.48696Z" fill="#0183FF"/>
</svg>
