<svg width="50" height="50" viewBox="0 0 50 50" fill="none" xmlns="http://www.w3.org/2000/svg">
<path fill-rule="evenodd" clip-rule="evenodd" d="M2.92893 2.92907C0 5.858 0 10.572 0 20.0001V30.0001C0 39.4282 0 44.1423 2.92893 47.0712C5.85786 50.0001 10.5719 50.0001 20 50.0001H30C39.4281 50.0001 44.1421 50.0001 47.0711 47.0712C50 44.1423 50 39.4282 50 30.0002V20.0001C50 12.9018 50 8.47559 48.75 5.47154V37.5001C46.3489 37.5001 44.0462 36.5463 42.3484 34.8485L40.4692 32.9693C38.6659 31.1661 37.7643 30.2644 36.7419 29.8845C35.6182 29.4668 34.3818 29.4668 33.2581 29.8845C32.2357 30.2644 31.3341 31.1661 29.5308 32.9693L29.248 33.2522C27.7846 34.7155 27.0529 35.4472 26.2755 35.5837C25.6712 35.6897 25.0491 35.5699 24.5275 35.2471C23.8564 34.8316 23.4487 33.8805 22.6335 31.9783L22.5 31.6668C20.6259 27.2939 19.6889 25.1075 18.0542 24.288C17.2312 23.8754 16.3103 23.6981 15.393 23.7755C13.5709 23.9292 11.8888 25.6113 8.52472 28.9754L3.75 33.7501V2.21863C3.461 2.43388 3.18798 2.67002 2.92893 2.92907Z" fill="white"/>
<path fill-rule="evenodd" clip-rule="evenodd" d="M30 5H20C15.1446 5 12.0061 5.01062 9.69352 5.32153C7.52482 5.6131 6.84509 6.08385 6.46447 6.46447C6.08385 6.84509 5.6131 7.52482 5.32153 9.69352C5.01062 12.0061 5 15.1446 5 20V30C5 34.8554 5.01062 37.9939 5.32153 40.3065C5.6131 42.4752 6.08385 43.1549 6.46447 43.5355C6.84509 43.9162 7.52482 44.3869 9.69352 44.6785C12.0061 44.9894 15.1446 45 20 45H30C34.8554 45 37.9939 44.9894 40.3065 44.6785C42.4752 44.3869 43.1549 43.9162 43.5355 43.5355C43.9162 43.1549 44.3869 42.4752 44.6785 40.3065C44.9894 37.9939 45 34.8554 45 30V20C45 15.1446 44.9894 12.0061 44.6785 9.69352C44.3869 7.52482 43.9162 6.84509 43.5355 6.46447C43.1549 6.08385 42.4752 5.6131 40.3065 5.32153C37.9939 5.01062 34.8554 5 30 5ZM2.92893 2.92907C0 5.858 0 10.572 0 20.0001V30.0001C0 39.4282 0 44.1423 2.92893 47.0712C5.85786 50.0001 10.5719 50.0001 20 50.0001H30C39.4281 50.0001 44.1421 50.0001 47.0711 47.0712C50 44.1423 50 39.4282 50 30.0002V20.0001C50 10.572 50 5.85786 47.0711 2.92893C44.1421 0 39.4281 0 30 0H20C10.5719 0 5.85786 0.000135899 2.92893 2.92907Z" fill="white"/>
<path d="M37.5 17.5C37.5 20.2614 35.2614 22.5 32.5 22.5C29.7386 22.5 27.5 20.2614 27.5 17.5C27.5 14.7386 29.7386 12.5 32.5 12.5C35.2614 12.5 37.5 14.7386 37.5 17.5Z" fill="white"/>
</svg>
