<svg width="56" height="56" viewBox="0 0 56 56" fill="none" xmlns="http://www.w3.org/2000/svg">
<path d="M28 52.5C21.5022 52.5 15.2705 49.9188 10.6759 45.3241C6.08124 40.7295 3.5 34.4978 3.5 28C3.5 21.5022 6.08124 15.2705 10.6759 10.6759C15.2705 6.08124 21.5022 3.5 28 3.5C34.4978 3.5 40.7295 6.08124 45.3241 10.6759C49.9188 15.2705 52.5 21.5022 52.5 28C52.5 34.4978 49.9188 40.7295 45.3241 45.3241C40.7295 49.9188 34.4978 52.5 28 52.5ZM28 56C35.4261 56 42.548 53.05 47.799 47.799C53.05 42.548 56 35.4261 56 28C56 20.5739 53.05 13.452 47.799 8.20101C42.548 2.94999 35.4261 0 28 0C20.5739 0 13.452 2.94999 8.20101 8.20101C2.94999 13.452 0 20.5739 0 28C0 35.4261 2.94999 42.548 8.20101 47.799C13.452 53.05 20.5739 56 28 56V56Z" fill="white"/>
<path d="M21.9485 17.6927C22.2347 17.5453 22.5561 17.4797 22.8772 17.5032C23.1983 17.5267 23.5067 17.6383 23.7685 17.8257L36.0185 26.5757C36.2454 26.7376 36.4303 26.9513 36.5578 27.1991C36.6854 27.4468 36.752 27.7215 36.752 28.0002C36.752 28.2789 36.6854 28.5535 36.5578 28.8013C36.4303 29.0491 36.2454 29.2628 36.0185 29.4247L23.7685 38.1747C23.5068 38.362 23.1986 38.4735 22.8776 38.497C22.5567 38.5204 22.2355 38.4549 21.9493 38.3077C21.6632 38.1605 21.4232 37.9372 21.2557 37.6624C21.0882 37.3876 20.9997 37.072 21 36.7502V19.2502C20.9997 18.9285 21.088 18.6129 21.2553 18.3381C21.4227 18.0634 21.6625 17.84 21.9485 17.6927Z" fill="white"/>
</svg>
