<svg width="44" height="44" viewBox="0 0 44 44" fill="none" xmlns="http://www.w3.org/2000/svg">
<path fill-rule="evenodd" clip-rule="evenodd" d="M22 0C9.84974 0 0 9.84974 0 22C0 34.1503 9.84974 44 22 44C34.1503 44 44 34.1503 44 22C44 9.84974 34.1503 0 22 0ZM31.1681 14.4369C32.1779 14.714 32.9731 15.5304 33.2429 16.5671C33.7333 18.4461 33.7333 22.3667 33.7333 22.3667C33.7333 22.3667 33.7333 26.2871 33.2429 28.1662C32.9731 29.203 32.1779 30.0194 31.1681 30.2966C29.3383 30.8 22 30.8 22 30.8C22 30.8 14.6617 30.8 12.8317 30.2966C11.822 30.0194 11.0268 29.203 10.7569 28.1662C10.2667 26.2871 10.2667 22.3667 10.2667 22.3667C10.2667 22.3667 10.2667 18.4461 10.7569 16.5671C11.0268 15.5304 11.822 14.714 12.8317 14.4369C14.6617 13.9333 22 13.9333 22 13.9333C22 13.9333 29.3383 13.9333 31.1681 14.4369Z" fill="white"/>
<path fill-rule="evenodd" clip-rule="evenodd" d="M19.7998 26.4V19.0667L25.6665 22.7335L19.7998 26.4Z" fill="white"/>
</svg>
